<?xml version="1.0" encoding="utf-8"?>
<!-- Generator: Adobe Illustrator 16.0.4, SVG Export Plug-In . SVG Version: 6.00 Build 0)  -->
<!DOCTYPE svg PUBLIC "-//W3C//DTD SVG 1.1//EN" "http://www.w3.org/Graphics/SVG/1.1/DTD/svg11.dtd">
<svg version="1.1" id="Calque_1" xmlns="http://www.w3.org/2000/svg" xmlns:xlink="http://www.w3.org/1999/xlink" x="0px" y="0px"
	 width="595.279px" height="841.89px" viewBox="0 0 595.279 841.89" enable-background="new 0 0 595.279 841.89"
	 xml:space="preserve">
<rect x="76.854" y="403.821" fill="none" width="452.658" height="160.627"/>
<text transform="matrix(1 0 0 1 76.8542 526.106)" fill="#1D1D1B" font-family="'Helvetica-Bold'" font-size="170.0787">CATS</text>
<path fill="#CFEAF8" stroke="#000000" stroke-width="0.7087" stroke-linecap="round" stroke-linejoin="round" stroke-miterlimit="10" d="
	M297.545,330.418h-72.441c-10.082,9.583-16.379,23.112-16.379,38.121c0,15.229,6.479,28.938,16.821,38.543h71.556
	c10.344-9.605,16.822-23.314,16.822-38.543C313.925,353.53,307.628,340.001,297.545,330.418z"/>
<path fill="#1D1D1B" stroke="#1D1D1B" stroke-width="0.7087" stroke-linecap="round" stroke-linejoin="round" stroke-miterlimit="10" d="
	M214.716,392.921c-5.991-14.077-4.991-25.382-4.991-25.382c1.643-44.798,33.575-41.352,33.575-41.352
	c0.382-3.16,10.574-9.797,14.959-9.883c4.384-0.084,6.837-1.412,7.813-3.135c0.979-1.723,1.455-2.871,1.455-2.871
	s1.556-3.814,1.011-4.785c-1.608-2.867-2.328-7.283-2.328-7.283c-1.312-1.939,2.187-8.283-5.535-15.148
	c-4.594-4.084-6.289-6.93-4.862-14.83c1.426-7.9-5.488-6.99-5.488-6.99s-5.032,7.623-10.987,9.756
	c-5.953,2.131-6.815,5.352-6.815,5.352c-5.038,13.372-12.623,14.148-12.623,14.148s-44.104,1.463-71.058,43.637
	c-23.332,36.512-12.825,72.928,25.675,72.928h52.032C226.546,407.082,219.126,403.281,214.716,392.921z"/>
<g>
	<path fill="#1D1D1B" d="M280.291,369.87c0,0-2.142,1.727-4.815,1.592c0,0,1.473-2.469,3.61-2.469c-2.14,0-3.608-2.471-3.608-2.471
		c2.676-0.133,4.813,1.609,4.813,1.609s3.879-2.943,8.295-2.943c9.496,0.004,11.103,2.887,11.103,2.887s-0.67,3.418-10.972,3.414
		C284.035,371.489,280.291,369.87,280.291,369.87z"/>
	<circle fill="#FFFFFF" stroke="#FFFFFF" stroke-miterlimit="10" cx="296.457" cy="368.402" r="0.727"/>
</g>
<g>
	<path fill="#1D1D1B" d="M226.388,383.396c0,0-2.168,1.693-4.841,1.518c0,0,1.511-2.445,3.649-2.412
		c-2.141-0.033-3.571-2.525-3.571-2.525c2.679-0.092,4.789,1.682,4.789,1.682s3.926-2.883,8.34-2.812
		c9.496,0.15,11.058,3.059,11.058,3.059s-0.726,3.406-11.022,3.244C230.109,385.074,226.388,383.396,226.388,383.396z"/>
	<path fill="#1D1D1B" d="M228.646,380.221c-0.25-0.336-0.551-1.324-0.123-1.693c0.397-0.344,1.533-0.416,2.031-0.488
		c1.332-0.191,3.153,0.045,4.338,0.607"/>
	<path fill="#1D1D1B" d="M227.517,383.949c-0.324,1.23,1.612,1.631,2.448,1.645c1.138,0.018,2.188-0.002,3.152-0.553"/>
	<path fill="#1D1D1B" d="M234.923,385.137c0.306,0.863-0.129,1.262,1.231,0.871c0.597-0.172,1.195-0.432,1.644-0.826"/>
	<circle fill="#FFFFFF" cx="242.576" cy="382.18" r="0.727"/>
</g>
<path fill="#1D1D1B" stroke="#1D1D1B" stroke-width="0.7087" stroke-linecap="round" stroke-linejoin="round" stroke-miterlimit="10" d="
	M254.298,316.517c0,0,14.326,4.527,25.151,25.431c2.51,4.847-4.766,7.759-8.821,2.742c-3.854-4.766-7.567-8.372-12.184-12.2
	c-8.89-7.375-19.521-6.411-19.521-6.411l-3.352-3.477L254.298,316.517z"/>
<g>
	<path fill="#1D1D1B" d="M229.769,356.672c0,0-2.168,1.693-4.84,1.518c0,0,1.51-2.445,3.649-2.412
		c-2.142-0.033-3.572-2.525-3.572-2.525c2.679-0.092,4.789,1.682,4.789,1.682s3.927-2.883,8.341-2.812
		c9.495,0.15,11.057,3.059,11.057,3.059s-0.726,3.406-11.022,3.244C233.49,358.35,229.769,356.672,229.769,356.672z"/>
	<path fill="#1D1D1B" d="M232.027,353.496c-0.25-0.336-0.551-1.324-0.123-1.693c0.397-0.344,1.533-0.416,2.031-0.488
		c1.332-0.191,3.153,0.045,4.338,0.607"/>
	<path fill="#1D1D1B" d="M230.898,357.225c-0.323,1.23,1.613,1.631,2.449,1.645c1.137,0.018,2.188-0.002,3.151-0.553"/>
	<path fill="#1D1D1B" d="M238.304,358.412c0.305,0.863-0.13,1.262,1.231,0.871c0.596-0.172,1.194-0.432,1.644-0.826"/>
	<circle fill="#FFFFFF" cx="245.957" cy="355.455" r="0.727"/>
</g>
<ellipse transform="matrix(-0.7889 -0.6145 0.6145 -0.7889 280.592 696.5347)" fill="#FFFFFF" cx="259.935" cy="300.072" rx="1.746" ry="2.732"/>
<circle fill="#1D1D1B" cx="259.304" cy="301.708" r="1.74"/>
<path fill="#1D1D1B" d="M335.594,404.597c-0.518-3.14-10.982-9.333-15.365-9.233c-4.383,0.102-6.891-1.12-7.943-2.799
	c-1.051-1.68-1.574-2.807-1.574-2.807s-1.717-3.745-1.215-4.737c1.486-2.934,2.018-7.376,2.018-7.376
	c1.227-1.994-2.537-8.184,4.883-15.371c4.416-4.276,5.988-7.191,4.227-15.024c-1.762-7.832,5.188-7.218,5.188-7.218
	s5.354,7.401,11.395,9.278c6.039,1.874,7.037,5.056,7.037,5.056c5.391,4.064,11.789,4.558,11.789,4.558s3.396-0.293,8.5-10.505
	c9-18,23.047-27.479,44.773-27.479c21.726,0,53.227,18.675,53.227,63.011c0,0,0,20.646-15.5,20.646
	C436.527,404.597,335.594,404.597,335.594,404.597z"/>
<path fill="#1D1D1B" d="M362.139,400.659c0,2.175-3.447,8.938-8.611,8.938c0,0-14.883,2.654-24.992,5.821
	c-10.107,3.167-37.756,3-37.756,3c-5.163,0-9.35-2.763-9.35-4.938l1-3.463c0-2.175,5.286-2.938,8.35-1.938
	c0,0,3.628-0.551,8.582-1.443c8.508-1.529,20.938-5.068,25.674-7.557c7.492-3.936,24-9.18,24-9.18
	c5.162,0,13.104,8.123,13.104,10.296L362.139,400.659L362.139,400.659z"/>
<line fill="none" stroke="#1D1D1B" stroke-miterlimit="10" x1="287.717" y1="407.082" x2="287.717" y2="371.489"/>
<ellipse transform="matrix(-0.7889 -0.6145 0.6145 -0.7889 337.2148 879.0974)" fill="#FFFFFF" cx="319.604" cy="381.628" rx="1.746" ry="2.732"/>
<circle fill="#1D1D1B" cx="317.872" cy="381.59" r="1.74"/>
<path fill="none" stroke="#1D1D1B" stroke-width="8.5039" stroke-linecap="round" stroke-linejoin="round" stroke-miterlimit="10" d="
	M160.159,401.337c0,0,34.598,10.503,33.5,41.499c-1,28.234,11.064,28,11.064,28s13.436,0.234,13.436-12.5"/>
<path fill="none" stroke="#1D1D1B" stroke-width="8.5039" stroke-linecap="round" stroke-linejoin="round" stroke-miterlimit="10" d="
	M451.158,396.837l33,3c0,0,17,1.5,27,15.5c6.374,8.922,21.698,14.034,27.5,11.053"/>
</svg>
